{
	"asset":{
		"generator":"Khronos glTF Blender I/O v4.2.70",
		"version":"2.0"
	},
	"extensionsUsed":[
		"KHR_materials_unlit"
	],
	"scene":0,
	"scenes":[
		{
			"name":"Scene",
			"nodes":[
				31
			]
		}
	],
	"nodes":[
		{
			"mesh":0,
			"name":"Object_22"
		},
		{
			"children":[
				0
			],
			"name":"node_10_10",
			"translation":[
				-12,
				7.5,
				-11.000000953674316
			]
		},
		{
			"mesh":1,
			"name":"Object_24"
		},
		{
			"children":[
				2
			],
			"name":"node_11_11",
			"translation":[
				-11.999999046325684,
				-8.500000953674316,
				-11.000000953674316
			]
		},
		{
			"mesh":2,
			"name":"Object_26"
		},
		{
			"children":[
				4
			],
			"name":"node_12_12",
			"translation":[
				-11.999999046325684,
				-8.500000953674316,
				-11.000000953674316
			]
		},
		{
			"mesh":3,
			"name":"Object_28"
		},
		{
			"children":[
				6
			],
			"name":"node_13_13",
			"translation":[
				-11.999999046325684,
				-8.500000953674316,
				-11.000000953674316
			]
		},
		{
			"mesh":4,
			"name":"Object_30"
		},
		{
			"children":[
				8
			],
			"name":"node_14_14",
			"translation":[
				-12,
				-24.500001907348633,
				-11.000000953674316
			]
		},
		{
			"name":"node_15_15",
			"translation":[
				-28.000001907348633,
				-8.500000953674316,
				-11
			]
		},
		{
			"mesh":5,
			"name":"Object_5",
			"translation":[
				5.98703627474606e-06,
				0,
				0
			]
		},
		{
			"children":[
				11
			],
			"name":"node_1_1",
			"scale":[
				0.03124999813735485,
				0.03125,
				0.03125
			],
			"translation":[
				12.25,
				-1.4531259536743164,
				-0.75
			]
		},
		{
			"mesh":6,
			"name":"Object_7.001",
			"translation":[
				5.98703627474606e-06,
				0,
				0
			]
		},
		{
			"children":[
				13
			],
			"name":"node_2_2",
			"scale":[
				0.03124999813735485,
				0.03125,
				0.03125
			],
			"translation":[
				12.25,
				-1.4531259536743164,
				-0.75
			]
		},
		{
			"mesh":7,
			"name":"Object_9",
			"translation":[
				5.98703627474606e-06,
				0,
				0
			]
		},
		{
			"children":[
				15
			],
			"name":"node_3_3",
			"scale":[
				0.03124999813735485,
				0.03125,
				0.03125
			],
			"translation":[
				12.25,
				-1.4531259536743164,
				-0.75
			]
		},
		{
			"mesh":8,
			"name":"Object_11"
		},
		{
			"children":[
				17
			],
			"name":"node_4_4",
			"translation":[
				4.000000476837158,
				-8.500000953674316,
				-11.000000953674316
			]
		},
		{
			"mesh":9,
			"name":"Object_13"
		},
		{
			"children":[
				19
			],
			"name":"node_5_5",
			"translation":[
				4.000000476837158,
				-8.500000953674316,
				-11.000000953674316
			]
		},
		{
			"mesh":10,
			"name":"Object_15"
		},
		{
			"children":[
				21
			],
			"name":"node_6_6",
			"translation":[
				4.000000476837158,
				-8.500000953674316,
				-11.000000953674316
			]
		},
		{
			"name":"node_7_7",
			"translation":[
				4.000000476837158,
				-8.500000953674316,
				-11.000000953674316
			]
		},
		{
			"mesh":11,
			"name":"Object_18"
		},
		{
			"children":[
				24
			],
			"name":"node_8_8",
			"translation":[
				4.000000476837158,
				-8.500000953674316,
				-11.000000953674316
			]
		},
		{
			"mesh":12,
			"name":"Object_20"
		},
		{
			"children":[
				26
			],
			"name":"node_9_9",
			"translation":[
				4,
				-24.500001907348633,
				-11.000000953674316
			]
		},
		{
			"children":[
				1,
				3,
				5,
				7,
				9,
				10,
				12,
				14,
				16,
				18,
				20,
				22,
				23,
				25,
				27
			],
			"name":"root_0"
		},
		{
			"children":[
				28
			],
			"name":"GLTF_SceneRootNode.001",
			"rotation":[
				0.70710688829422,
				0,
				0,
				0.7071066498756409
			]
		},
		{
			"children":[
				29
			],
			"name":"root.001"
		},
		{
			"children":[
				30
			],
			"name":"Sketchfab_model.001",
			"rotation":[
				-0.5006669163703918,
				0.4993317425251007,
				0.4991720914840698,
				0.5008270144462585
			],
			"scale":[
				0.6826883554458618,
				0.6826883554458618,
				0.6826883554458618
			],
			"translation":[
				-0.2071249783039093,
				6.45435905456543,
				1.6271178722381592
			]
		}
	],
	"materials":[
		{
			"extensions":{
				"KHR_materials_unlit":{}
			},
			"name":"terrain_atlas.terrain",
			"pbrMetallicRoughness":{
				"baseColorTexture":{
					"index":0
				},
				"metallicFactor":0,
				"roughnessFactor":0.9
			}
		},
		{
			"alphaMode":"MASK",
			"extensions":{
				"KHR_materials_unlit":{}
			},
			"name":"terrain_atlas.terrain_alpha",
			"pbrMetallicRoughness":{
				"baseColorTexture":{
					"index":1
				},
				"metallicFactor":0,
				"roughnessFactor":0.9
			}
		},
		{
			"extensions":{
				"KHR_materials_unlit":{}
			},
			"name":"entity",
			"pbrMetallicRoughness":{
				"metallicFactor":0,
				"roughnessFactor":0.9
			}
		},
		{
			"alphaMode":"BLEND",
			"extensions":{
				"KHR_materials_unlit":{}
			},
			"name":"terrain_atlas.terrain_blend",
			"pbrMetallicRoughness":{
				"baseColorTexture":{
					"index":2
				},
				"metallicFactor":0,
				"roughnessFactor":0.9
			}
		}
	],
	"meshes":[
		{
			"name":"Object_8.003",
			"primitives":[
				{
					"attributes":{
						"POSITION":0,
						"NORMAL":1,
						"TEXCOORD_0":2,
						"COLOR_0":3
					},
					"indices":4,
					"material":0
				}
			]
		},
		{
			"name":"Object_9.003",
			"primitives":[
				{
					"attributes":{
						"POSITION":5,
						"NORMAL":6,
						"TEXCOORD_0":7,
						"COLOR_0":8
					},
					"indices":9,
					"material":1
				}
			]
		},
		{
			"name":"Object_10.003",
			"primitives":[
				{
					"attributes":{
						"POSITION":10,
						"NORMAL":11,
						"TEXCOORD_0":12,
						"COLOR_0":13
					},
					"indices":14,
					"material":1
				}
			]
		},
		{
			"name":"Object_11.003",
			"primitives":[
				{
					"attributes":{
						"POSITION":15,
						"NORMAL":16,
						"TEXCOORD_0":17,
						"COLOR_0":18
					},
					"indices":19,
					"material":0
				}
			]
		},
		{
			"name":"Object_12.003",
			"primitives":[
				{
					"attributes":{
						"POSITION":20,
						"NORMAL":21,
						"TEXCOORD_0":22,
						"COLOR_0":23
					},
					"indices":24,
					"material":0
				}
			]
		},
		{
			"name":"Object_0.006",
			"primitives":[
				{
					"attributes":{
						"POSITION":25,
						"NORMAL":26,
						"TEXCOORD_0":27,
						"COLOR_0":28
					},
					"indices":29,
					"material":2
				}
			]
		},
		{
			"name":"Object_1.003",
			"primitives":[
				{
					"attributes":{
						"POSITION":30,
						"NORMAL":31,
						"TEXCOORD_0":32,
						"COLOR_0":33
					},
					"indices":29,
					"material":2
				}
			]
		},
		{
			"name":"Object_2.003",
			"primitives":[
				{
					"attributes":{
						"POSITION":34,
						"NORMAL":35,
						"TEXCOORD_0":36,
						"COLOR_0":37
					},
					"indices":29,
					"material":2
				}
			]
		},
		{
			"name":"Object_3.003",
			"primitives":[
				{
					"attributes":{
						"POSITION":38,
						"NORMAL":39,
						"TEXCOORD_0":40,
						"COLOR_0":41
					},
					"indices":42,
					"material":3
				}
			]
		},
		{
			"name":"Object_4.003",
			"primitives":[
				{
					"attributes":{
						"POSITION":43,
						"NORMAL":44,
						"TEXCOORD_0":45,
						"COLOR_0":46
					},
					"indices":47,
					"material":1
				}
			]
		},
		{
			"name":"Object_5.003",
			"primitives":[
				{
					"attributes":{
						"POSITION":48,
						"NORMAL":49,
						"TEXCOORD_0":50,
						"COLOR_0":51
					},
					"indices":52,
					"material":1
				}
			]
		},
		{
			"name":"Object_6.003",
			"primitives":[
				{
					"attributes":{
						"POSITION":53,
						"NORMAL":54,
						"TEXCOORD_0":55,
						"COLOR_0":56
					},
					"indices":57,
					"material":0
				}
			]
		},
		{
			"name":"Object_7.003",
			"primitives":[
				{
					"attributes":{
						"POSITION":58,
						"NORMAL":59,
						"TEXCOORD_0":60,
						"COLOR_0":61
					},
					"indices":62,
					"material":0
				}
			]
		}
	],
	"textures":[
		{
			"sampler":0,
			"source":0
		},
		{
			"sampler":1,
			"source":1
		},
		{
			"sampler":1,
			"source":2
		}
	],
	"images":[
		{
			"mimeType":"image/png",
			"name":"terrain_atlas.terrain_baseColor",
			"uri":"textures/terrain_atlas_terrain_baseColor.png"
		},
		{
			"mimeType":"image/png",
			"name":"terrain_atlas.terrain_alpha_baseColor",
			"uri":"textures/terrain_atlas_terrain_alpha_baseColor.png"
		},
		{
			"mimeType":"image/png",
			"name":"terrain_atlas.terrain_blend_baseColor",
			"uri":"textures/terrain_atlas_terrain_blend_baseColor.png"
		}
	],
	"accessors":[
		{
			"bufferView":0,
			"componentType":5126,
			"count":40,
			"max":[
				12,
				1.375,
				12
			],
			"min":[
				11,
				0,
				11
			],
			"type":"VEC3"
		},
		{
			"bufferView":1,
			"componentType":5126,
			"count":40,
			"type":"VEC3"
		},
		{
			"bufferView":2,
			"componentType":5126,
			"count":40,
			"type":"VEC2"
		},
		{
			"bufferView":3,
			"componentType":5126,
			"count":40,
			"type":"VEC3"
		},
		{
			"bufferView":4,
			"componentType":5123,
			"count":60,
			"type":"SCALAR"
		},
		{
			"bufferView":5,
			"componentType":5126,
			"count":483,
			"max":[
				16,
				4,
				14
			],
			"min":[
				9,
				2,
				9
			],
			"type":"VEC3"
		},
		{
			"bufferView":6,
			"componentType":5126,
			"count":483,
			"type":"VEC3"
		},
		{
			"bufferView":7,
			"componentType":5126,
			"count":483,
			"type":"VEC2"
		},
		{
			"bufferView":8,
			"componentType":5123,
			"count":483,
			"normalized":true,
			"type":"VEC4"
		},
		{
			"bufferView":9,
			"componentType":5123,
			"count":750,
			"type":"SCALAR"
		},
		{
			"bufferView":10,
			"componentType":5126,
			"count":420,
			"max":[
				15.6875,
				6,
				12.9375
			],
			"min":[
				2.3125,
				1,
				10
			],
			"type":"VEC3"
		},
		{
			"bufferView":11,
			"componentType":5126,
			"count":420,
			"type":"VEC3"
		},
		{
			"bufferView":12,
			"componentType":5126,
			"count":420,
			"type":"VEC2"
		},
		{
			"bufferView":13,
			"componentType":5123,
			"count":420,
			"normalized":true,
			"type":"VEC4"
		},
		{
			"bufferView":14,
			"componentType":5123,
			"count":630,
			"type":"SCALAR"
		},
		{
			"bufferView":15,
			"componentType":5126,
			"count":8150,
			"max":[
				16,
				16,
				16
			],
			"min":[
				0,
				0,
				7
			],
			"type":"VEC3"
		},
		{
			"bufferView":16,
			"componentType":5126,
			"count":8150,
			"type":"VEC3"
		},
		{
			"bufferView":17,
			"componentType":5126,
			"count":8150,
			"type":"VEC2"
		},
		{
			"bufferView":18,
			"componentType":5126,
			"count":8150,
			"type":"VEC3"
		},
		{
			"bufferView":19,
			"componentType":5123,
			"count":12312,
			"type":"SCALAR"
		},
		{
			"bufferView":20,
			"componentType":5126,
			"count":156,
			"max":[
				16,
				16,
				12
			],
			"min":[
				8,
				15,
				11
			],
			"type":"VEC3"
		},
		{
			"bufferView":21,
			"componentType":5126,
			"count":156,
			"type":"VEC3"
		},
		{
			"bufferView":22,
			"componentType":5126,
			"count":156,
			"type":"VEC2"
		},
		{
			"bufferView":23,
			"componentType":5126,
			"count":156,
			"type":"VEC3"
		},
		{
			"bufferView":24,
			"componentType":5123,
			"count":234,
			"type":"SCALAR"
		},
		{
			"bufferView":25,
			"componentType":5126,
			"count":912,
			"max":[
				15,
				1,
				15
			],
			"min":[
				1,
				0,
				1
			],
			"type":"VEC3"
		},
		{
			"bufferView":26,
			"componentType":5126,
			"count":912,
			"type":"VEC3"
		},
		{
			"bufferView":27,
			"componentType":5126,
			"count":912,
			"type":"VEC2"
		},
		{
			"bufferView":28,
			"componentType":5126,
			"count":912,
			"type":"VEC3"
		},
		{
			"bufferView":29,
			"componentType":5123,
			"count":1368,
			"type":"SCALAR"
		},
		{
			"bufferView":30,
			"componentType":5126,
			"count":912,
			"max":[
				15,
				1,
				15
			],
			"min":[
				1,
				0,
				1
			],
			"type":"VEC3"
		},
		{
			"bufferView":31,
			"componentType":5126,
			"count":912,
			"type":"VEC3"
		},
		{
			"bufferView":32,
			"componentType":5126,
			"count":912,
			"type":"VEC2"
		},
		{
			"bufferView":33,
			"componentType":5126,
			"count":912,
			"type":"VEC3"
		},
		{
			"bufferView":34,
			"componentType":5126,
			"count":912,
			"max":[
				15,
				1,
				15
			],
			"min":[
				1,
				0,
				1
			],
			"type":"VEC3"
		},
		{
			"bufferView":35,
			"componentType":5126,
			"count":912,
			"type":"VEC3"
		},
		{
			"bufferView":36,
			"componentType":5126,
			"count":912,
			"type":"VEC2"
		},
		{
			"bufferView":37,
			"componentType":5126,
			"count":912,
			"type":"VEC3"
		},
		{
			"bufferView":38,
			"componentType":5126,
			"count":60,
			"max":[
				11,
				6,
				16
			],
			"min":[
				2,
				2,
				7
			],
			"type":"VEC3"
		},
		{
			"bufferView":39,
			"componentType":5126,
			"count":60,
			"type":"VEC3"
		},
		{
			"bufferView":40,
			"componentType":5126,
			"count":60,
			"type":"VEC2"
		},
		{
			"bufferView":41,
			"componentType":5123,
			"count":60,
			"normalized":true,
			"type":"VEC4"
		},
		{
			"bufferView":42,
			"componentType":5123,
			"count":90,
			"type":"SCALAR"
		},
		{
			"bufferView":43,
			"componentType":5126,
			"count":100,
			"max":[
				7.1796875,
				9,
				12.1796875
			],
			"min":[
				0,
				1,
				10
			],
			"type":"VEC3"
		},
		{
			"bufferView":44,
			"componentType":5126,
			"count":100,
			"type":"VEC3"
		},
		{
			"bufferView":45,
			"componentType":5126,
			"count":100,
			"type":"VEC2"
		},
		{
			"bufferView":46,
			"componentType":5123,
			"count":100,
			"normalized":true,
			"type":"VEC4"
		},
		{
			"bufferView":47,
			"componentType":5123,
			"count":150,
			"type":"SCALAR"
		},
		{
			"bufferView":48,
			"componentType":5126,
			"count":184,
			"max":[
				8,
				6,
				12.859375
			],
			"min":[
				3.3125,
				1,
				10.3125
			],
			"type":"VEC3"
		},
		{
			"bufferView":49,
			"componentType":5126,
			"count":184,
			"type":"VEC3"
		},
		{
			"bufferView":50,
			"componentType":5126,
			"count":184,
			"type":"VEC2"
		},
		{
			"bufferView":51,
			"componentType":5123,
			"count":184,
			"normalized":true,
			"type":"VEC4"
		},
		{
			"bufferView":52,
			"componentType":5123,
			"count":276,
			"type":"SCALAR"
		},
		{
			"bufferView":53,
			"componentType":5126,
			"count":8522,
			"max":[
				11,
				13.375,
				16
			],
			"min":[
				0,
				0,
				7
			],
			"type":"VEC3"
		},
		{
			"bufferView":54,
			"componentType":5126,
			"count":8522,
			"type":"VEC3"
		},
		{
			"bufferView":55,
			"componentType":5126,
			"count":8522,
			"type":"VEC2"
		},
		{
			"bufferView":56,
			"componentType":5126,
			"count":8522,
			"type":"VEC3"
		},
		{
			"bufferView":57,
			"componentType":5123,
			"count":12942,
			"type":"SCALAR"
		},
		{
			"bufferView":58,
			"componentType":5126,
			"count":184,
			"max":[
				11,
				16,
				12
			],
			"min":[
				0,
				15,
				11
			],
			"type":"VEC3"
		},
		{
			"bufferView":59,
			"componentType":5126,
			"count":184,
			"type":"VEC3"
		},
		{
			"bufferView":60,
			"componentType":5126,
			"count":184,
			"type":"VEC2"
		},
		{
			"bufferView":61,
			"componentType":5126,
			"count":184,
			"type":"VEC3"
		},
		{
			"bufferView":62,
			"componentType":5123,
			"count":276,
			"type":"SCALAR"
		}
	],
	"bufferViews":[
		{
			"buffer":0,
			"byteLength":480,
			"byteOffset":0,
			"target":34962
		},
		{
			"buffer":0,
			"byteLength":480,
			"byteOffset":480,
			"target":34962
		},
		{
			"buffer":0,
			"byteLength":320,
			"byteOffset":960,
			"target":34962
		},
		{
			"buffer":0,
			"byteLength":480,
			"byteOffset":1280,
			"target":34962
		},
		{
			"buffer":0,
			"byteLength":120,
			"byteOffset":1760,
			"target":34963
		},
		{
			"buffer":0,
			"byteLength":5796,
			"byteOffset":1880,
			"target":34962
		},
		{
			"buffer":0,
			"byteLength":5796,
			"byteOffset":7676,
			"target":34962
		},
		{
			"buffer":0,
			"byteLength":3864,
			"byteOffset":13472,
			"target":34962
		},
		{
			"buffer":0,
			"byteLength":3864,
			"byteOffset":17336,
			"target":34962
		},
		{
			"buffer":0,
			"byteLength":1500,
			"byteOffset":21200,
			"target":34963
		},
		{
			"buffer":0,
			"byteLength":5040,
			"byteOffset":22700,
			"target":34962
		},
		{
			"buffer":0,
			"byteLength":5040,
			"byteOffset":27740,
			"target":34962
		},
		{
			"buffer":0,
			"byteLength":3360,
			"byteOffset":32780,
			"target":34962
		},
		{
			"buffer":0,
			"byteLength":3360,
			"byteOffset":36140,
			"target":34962
		},
		{
			"buffer":0,
			"byteLength":1260,
			"byteOffset":39500,
			"target":34963
		},
		{
			"buffer":0,
			"byteLength":97800,
			"byteOffset":40760,
			"target":34962
		},
		{
			"buffer":0,
			"byteLength":97800,
			"byteOffset":138560,
			"target":34962
		},
		{
			"buffer":0,
			"byteLength":65200,
			"byteOffset":236360,
			"target":34962
		},
		{
			"buffer":0,
			"byteLength":97800,
			"byteOffset":301560,
			"target":34962
		},
		{
			"buffer":0,
			"byteLength":24624,
			"byteOffset":399360,
			"target":34963
		},
		{
			"buffer":0,
			"byteLength":1872,
			"byteOffset":423984,
			"target":34962
		},
		{
			"buffer":0,
			"byteLength":1872,
			"byteOffset":425856,
			"target":34962
		},
		{
			"buffer":0,
			"byteLength":1248,
			"byteOffset":427728,
			"target":34962
		},
		{
			"buffer":0,
			"byteLength":1872,
			"byteOffset":428976,
			"target":34962
		},
		{
			"buffer":0,
			"byteLength":468,
			"byteOffset":430848,
			"target":34963
		},
		{
			"buffer":0,
			"byteLength":10944,
			"byteOffset":431316,
			"target":34962
		},
		{
			"buffer":0,
			"byteLength":10944,
			"byteOffset":442260,
			"target":34962
		},
		{
			"buffer":0,
			"byteLength":7296,
			"byteOffset":453204,
			"target":34962
		},
		{
			"buffer":0,
			"byteLength":10944,
			"byteOffset":460500,
			"target":34962
		},
		{
			"buffer":0,
			"byteLength":2736,
			"byteOffset":471444,
			"target":34963
		},
		{
			"buffer":0,
			"byteLength":10944,
			"byteOffset":474180,
			"target":34962
		},
		{
			"buffer":0,
			"byteLength":10944,
			"byteOffset":485124,
			"target":34962
		},
		{
			"buffer":0,
			"byteLength":7296,
			"byteOffset":496068,
			"target":34962
		},
		{
			"buffer":0,
			"byteLength":10944,
			"byteOffset":503364,
			"target":34962
		},
		{
			"buffer":0,
			"byteLength":10944,
			"byteOffset":514308,
			"target":34962
		},
		{
			"buffer":0,
			"byteLength":10944,
			"byteOffset":525252,
			"target":34962
		},
		{
			"buffer":0,
			"byteLength":7296,
			"byteOffset":536196,
			"target":34962
		},
		{
			"buffer":0,
			"byteLength":10944,
			"byteOffset":543492,
			"target":34962
		},
		{
			"buffer":0,
			"byteLength":720,
			"byteOffset":554436,
			"target":34962
		},
		{
			"buffer":0,
			"byteLength":720,
			"byteOffset":555156,
			"target":34962
		},
		{
			"buffer":0,
			"byteLength":480,
			"byteOffset":555876,
			"target":34962
		},
		{
			"buffer":0,
			"byteLength":480,
			"byteOffset":556356,
			"target":34962
		},
		{
			"buffer":0,
			"byteLength":180,
			"byteOffset":556836,
			"target":34963
		},
		{
			"buffer":0,
			"byteLength":1200,
			"byteOffset":557016,
			"target":34962
		},
		{
			"buffer":0,
			"byteLength":1200,
			"byteOffset":558216,
			"target":34962
		},
		{
			"buffer":0,
			"byteLength":800,
			"byteOffset":559416,
			"target":34962
		},
		{
			"buffer":0,
			"byteLength":800,
			"byteOffset":560216,
			"target":34962
		},
		{
			"buffer":0,
			"byteLength":300,
			"byteOffset":561016,
			"target":34963
		},
		{
			"buffer":0,
			"byteLength":2208,
			"byteOffset":561316,
			"target":34962
		},
		{
			"buffer":0,
			"byteLength":2208,
			"byteOffset":563524,
			"target":34962
		},
		{
			"buffer":0,
			"byteLength":1472,
			"byteOffset":565732,
			"target":34962
		},
		{
			"buffer":0,
			"byteLength":1472,
			"byteOffset":567204,
			"target":34962
		},
		{
			"buffer":0,
			"byteLength":552,
			"byteOffset":568676,
			"target":34963
		},
		{
			"buffer":0,
			"byteLength":102264,
			"byteOffset":569228,
			"target":34962
		},
		{
			"buffer":0,
			"byteLength":102264,
			"byteOffset":671492,
			"target":34962
		},
		{
			"buffer":0,
			"byteLength":68176,
			"byteOffset":773756,
			"target":34962
		},
		{
			"buffer":0,
			"byteLength":102264,
			"byteOffset":841932,
			"target":34962
		},
		{
			"buffer":0,
			"byteLength":25884,
			"byteOffset":944196,
			"target":34963
		},
		{
			"buffer":0,
			"byteLength":2208,
			"byteOffset":970080,
			"target":34962
		},
		{
			"buffer":0,
			"byteLength":2208,
			"byteOffset":972288,
			"target":34962
		},
		{
			"buffer":0,
			"byteLength":1472,
			"byteOffset":974496,
			"target":34962
		},
		{
			"buffer":0,
			"byteLength":2208,
			"byteOffset":975968,
			"target":34962
		},
		{
			"buffer":0,
			"byteLength":552,
			"byteOffset":978176,
			"target":34963
		}
	],
	"samplers":[
		{
			"magFilter":9728,
			"minFilter":9984
		},
		{
			"magFilter":9729,
			"minFilter":9987
		}
	],
	"buffers":[
		{
			"byteLength":978728,
			"uri":"scene.bin"
		}
	]
}
