{
	"asset":{
		"generator":"Khronos glTF Blender I/O v4.2.70",
		"version":"2.0"
	},
	"extensionsUsed":[
		"KHR_materials_clearcoat"
	],
	"scene":0,
	"scenes":[
		{
			"name":"Scene",
			"nodes":[
				22
			]
		}
	],
	"nodes":[
		{
			"mesh":0,
			"name":"Object_14"
		},
		{
			"children":[
				0
			],
			"name":"Body_4",
			"translation":[
				0,
				-0.7499999403953552,
				0
			]
		},
		{
			"mesh":1,
			"name":"Object_16"
		},
		{
			"children":[
				2
			],
			"name":"cube_5"
		},
		{
			"mesh":2,
			"name":"Object_21"
		},
		{
			"children":[
				4
			],
			"name":"cube_7"
		},
		{
			"mesh":3,
			"name":"Object_19"
		},
		{
			"children":[
				6
			],
			"name":"Head_6"
		},
		{
			"children":[
				5,
				7
			],
			"name":"Head_8",
			"rotation":[
				0.2879220247268677,
				-0.041768696159124374,
				0.012570951133966446,
				0.9566600322723389
			],
			"translation":[
				0,
				0.7500001788139343,
				0
			]
		},
		{
			"mesh":4,
			"name":"Object_27"
		},
		{
			"children":[
				9
			],
			"name":"Left Arm_11",
			"rotation":[
				-0.96347975730896,
				-0.238362118601799,
				-0.12161469459533691,
				0.010008423589169979
			]
		},
		{
			"children":[
				10
			],
			"name":"LeftArm_12",
			"rotation":[
				-0.10452850908041,
				0,
				0,
				0.994521975517273
			],
			"translation":[
				-0.3124999701976776,
				0.6250001788139343,
				0
			]
		},
		{
			"mesh":5,
			"name":"Object_24"
		},
		{
			"children":[
				12
			],
			"name":"Right Arm_9",
			"rotation":[
				0.9668397903442383,
				-0.16930526494979858,
				-0.0760309174656868,
				0.17543067038059235
			]
		},
		{
			"children":[
				13
			],
			"name":"RightArm_10",
			"rotation":[
				0.08715575933456421,
				0,
				0,
				0.9961947202682495
			],
			"translation":[
				0.3125000298023224,
				0.6250002384185791,
				0
			]
		},
		{
			"children":[
				1,
				3,
				8,
				11,
				14
			],
			"name":"Body_13",
			"translation":[
				0,
				0.7500000596046448,
				0
			]
		},
		{
			"mesh":6,
			"name":"Object_8"
		},
		{
			"children":[
				16
			],
			"name":"Left Leg_0",
			"rotation":[
				-0.0028528140392154455,
				-0.06534084677696228,
				-0.043525975197553635,
				0.9969092011451721
			],
			"translation":[
				-0.006249940022826195,
				0,
				0
			]
		},
		{
			"children":[
				17
			],
			"name":"LeftLeg_1",
			"rotation":[
				0.08714248239994049,
				-0.0015211065765470266,
				-0.017386017367243767,
				0.9960429668426514
			],
			"translation":[
				-0.11875008046627045,
				0.7500000596046448,
				0
			]
		},
		{
			"mesh":7,
			"name":"Object_11"
		},
		{
			"children":[
				19
			],
			"name":"Right Leg_2",
			"rotation":[
				-0.0038016848266124725,
				0.08707281202077866,
				0.043453432619571686,
				0.9952466487884521
			],
			"translation":[
				0.006250033155083656,
				0,
				0
			]
		},
		{
			"children":[
				20
			],
			"name":"RightLeg_3",
			"rotation":[
				-0.09583117812871933,
				-0.0016727587208151817,
				0.01737203076481819,
				0.9952446222305298
			],
			"translation":[
				0.11874990165233612,
				0.7500000596046448,
				0
			]
		},
		{
			"children":[
				15,
				18,
				21
			],
			"name":"Steve_14",
			"rotation":[
				-0.12921065092086792,
				-0.851574718952179,
				-0.4433017373085022,
				0.24821138381958008
			],
			"scale":[
				2.680528402328491,
				2.680528402328491,
				2.680528163909912
			],
			"translation":[
				-1.9956278800964355,
				1.3509278297424316,
				-0.5898513197898865
			]
		}
	],
	"materials":[
		{
			"alphaCutoff":0.05000000074505806,
			"alphaMode":"MASK",
			"doubleSided":true,
			"extensions":{
				"KHR_materials_clearcoat":{
					"clearcoatFactor":1,
					"clearcoatRoughnessFactor":0.8008720874786377,
					"clearcoatTexture":{
						"index":0
					},
					"clearcoatRoughnessTexture":{
						"index":0
					}
				}
			},
			"name":"material_0",
			"pbrMetallicRoughness":{
				"baseColorTexture":{
					"index":1
				},
				"metallicFactor":0.3531976640224457
			}
		}
	],
	"meshes":[
		{
			"name":"Object_2",
			"primitives":[
				{
					"attributes":{
						"POSITION":0,
						"NORMAL":1,
						"TEXCOORD_0":2
					},
					"indices":3,
					"material":0
				}
			]
		},
		{
			"name":"Object_3",
			"primitives":[
				{
					"attributes":{
						"POSITION":4,
						"NORMAL":5,
						"TEXCOORD_0":6
					},
					"indices":3,
					"material":0
				}
			]
		},
		{
			"name":"Object_5",
			"primitives":[
				{
					"attributes":{
						"POSITION":7,
						"NORMAL":8,
						"TEXCOORD_0":9
					},
					"indices":3,
					"material":0
				}
			]
		},
		{
			"name":"Object_4",
			"primitives":[
				{
					"attributes":{
						"POSITION":10,
						"NORMAL":11,
						"TEXCOORD_0":12
					},
					"indices":3,
					"material":0
				}
			]
		},
		{
			"name":"Object_7",
			"primitives":[
				{
					"attributes":{
						"POSITION":13,
						"NORMAL":14,
						"TEXCOORD_0":15
					},
					"indices":3,
					"material":0
				}
			]
		},
		{
			"name":"Object_6",
			"primitives":[
				{
					"attributes":{
						"POSITION":16,
						"NORMAL":17,
						"TEXCOORD_0":18
					},
					"indices":3,
					"material":0
				}
			]
		},
		{
			"name":"Object_0.002",
			"primitives":[
				{
					"attributes":{
						"POSITION":19,
						"NORMAL":20,
						"TEXCOORD_0":21
					},
					"indices":3,
					"material":0
				}
			]
		},
		{
			"name":"Object_1",
			"primitives":[
				{
					"attributes":{
						"POSITION":22,
						"NORMAL":23,
						"TEXCOORD_0":24
					},
					"indices":3,
					"material":0
				}
			]
		}
	],
	"textures":[
		{
			"sampler":0,
			"source":0
		},
		{
			"sampler":1,
			"source":1
		}
	],
	"images":[
		{
			"mimeType":"image/png",
			"name":"material_0_clearcoat-material_0_clearcoat_roughness",
			"uri":"textures/material_0_clearcoat-material_0_clearcoat_roughness.png"
		},
		{
			"mimeType":"image/png",
			"name":"material_0_baseColor",
			"uri":"textures/material_0_baseColor.png"
		}
	],
	"accessors":[
		{
			"bufferView":0,
			"componentType":5126,
			"count":24,
			"max":[
				0.25,
				1.5,
				0.125
			],
			"min":[
				-0.25,
				0.75,
				-0.125
			],
			"type":"VEC3"
		},
		{
			"bufferView":1,
			"componentType":5126,
			"count":24,
			"type":"VEC3"
		},
		{
			"bufferView":2,
			"componentType":5126,
			"count":24,
			"type":"VEC2"
		},
		{
			"bufferView":3,
			"componentType":5123,
			"count":36,
			"type":"SCALAR"
		},
		{
			"bufferView":4,
			"componentType":5126,
			"count":24,
			"max":[
				0.125,
				0.6875,
				0.375
			],
			"min":[
				-0.125,
				0.0625,
				0.125
			],
			"type":"VEC3"
		},
		{
			"bufferView":5,
			"componentType":5126,
			"count":24,
			"type":"VEC3"
		},
		{
			"bufferView":6,
			"componentType":5126,
			"count":24,
			"type":"VEC2"
		},
		{
			"bufferView":7,
			"componentType":5126,
			"count":24,
			"max":[
				0.3125,
				0.5625,
				0.3125
			],
			"min":[
				-0.3125,
				-0.0625,
				-0.3125
			],
			"type":"VEC3"
		},
		{
			"bufferView":8,
			"componentType":5126,
			"count":24,
			"type":"VEC3"
		},
		{
			"bufferView":9,
			"componentType":5126,
			"count":24,
			"type":"VEC2"
		},
		{
			"bufferView":10,
			"componentType":5126,
			"count":24,
			"max":[
				0.25,
				0.5,
				0.25
			],
			"min":[
				-0.25,
				0,
				-0.25
			],
			"type":"VEC3"
		},
		{
			"bufferView":11,
			"componentType":5126,
			"count":24,
			"type":"VEC3"
		},
		{
			"bufferView":12,
			"componentType":5126,
			"count":24,
			"type":"VEC2"
		},
		{
			"bufferView":13,
			"componentType":5126,
			"count":24,
			"max":[
				0.0625,
				0,
				0.125
			],
			"min":[
				-0.1875,
				-0.75,
				-0.125
			],
			"type":"VEC3"
		},
		{
			"bufferView":14,
			"componentType":5126,
			"count":24,
			"type":"VEC3"
		},
		{
			"bufferView":15,
			"componentType":5126,
			"count":24,
			"type":"VEC2"
		},
		{
			"bufferView":16,
			"componentType":5126,
			"count":24,
			"max":[
				0.1875,
				0.0625,
				0.125
			],
			"min":[
				-0.0625,
				-0.6875,
				-0.125
			],
			"type":"VEC3"
		},
		{
			"bufferView":17,
			"componentType":5126,
			"count":24,
			"type":"VEC3"
		},
		{
			"bufferView":18,
			"componentType":5126,
			"count":24,
			"type":"VEC2"
		},
		{
			"bufferView":19,
			"componentType":5126,
			"count":24,
			"max":[
				0.13124999403953552,
				0,
				0.125
			],
			"min":[
				-0.11874999850988388,
				-0.75,
				-0.125
			],
			"type":"VEC3"
		},
		{
			"bufferView":20,
			"componentType":5126,
			"count":24,
			"type":"VEC3"
		},
		{
			"bufferView":21,
			"componentType":5126,
			"count":24,
			"type":"VEC2"
		},
		{
			"bufferView":22,
			"componentType":5126,
			"count":24,
			"max":[
				0.11874999850988388,
				0,
				0.125
			],
			"min":[
				-0.13124999403953552,
				-0.75,
				-0.125
			],
			"type":"VEC3"
		},
		{
			"bufferView":23,
			"componentType":5126,
			"count":24,
			"type":"VEC3"
		},
		{
			"bufferView":24,
			"componentType":5126,
			"count":24,
			"type":"VEC2"
		}
	],
	"bufferViews":[
		{
			"buffer":0,
			"byteLength":288,
			"byteOffset":0,
			"target":34962
		},
		{
			"buffer":0,
			"byteLength":288,
			"byteOffset":288,
			"target":34962
		},
		{
			"buffer":0,
			"byteLength":192,
			"byteOffset":576,
			"target":34962
		},
		{
			"buffer":0,
			"byteLength":72,
			"byteOffset":768,
			"target":34963
		},
		{
			"buffer":0,
			"byteLength":288,
			"byteOffset":840,
			"target":34962
		},
		{
			"buffer":0,
			"byteLength":288,
			"byteOffset":1128,
			"target":34962
		},
		{
			"buffer":0,
			"byteLength":192,
			"byteOffset":1416,
			"target":34962
		},
		{
			"buffer":0,
			"byteLength":288,
			"byteOffset":1608,
			"target":34962
		},
		{
			"buffer":0,
			"byteLength":288,
			"byteOffset":1896,
			"target":34962
		},
		{
			"buffer":0,
			"byteLength":192,
			"byteOffset":2184,
			"target":34962
		},
		{
			"buffer":0,
			"byteLength":288,
			"byteOffset":2376,
			"target":34962
		},
		{
			"buffer":0,
			"byteLength":288,
			"byteOffset":2664,
			"target":34962
		},
		{
			"buffer":0,
			"byteLength":192,
			"byteOffset":2952,
			"target":34962
		},
		{
			"buffer":0,
			"byteLength":288,
			"byteOffset":3144,
			"target":34962
		},
		{
			"buffer":0,
			"byteLength":288,
			"byteOffset":3432,
			"target":34962
		},
		{
			"buffer":0,
			"byteLength":192,
			"byteOffset":3720,
			"target":34962
		},
		{
			"buffer":0,
			"byteLength":288,
			"byteOffset":3912,
			"target":34962
		},
		{
			"buffer":0,
			"byteLength":288,
			"byteOffset":4200,
			"target":34962
		},
		{
			"buffer":0,
			"byteLength":192,
			"byteOffset":4488,
			"target":34962
		},
		{
			"buffer":0,
			"byteLength":288,
			"byteOffset":4680,
			"target":34962
		},
		{
			"buffer":0,
			"byteLength":288,
			"byteOffset":4968,
			"target":34962
		},
		{
			"buffer":0,
			"byteLength":192,
			"byteOffset":5256,
			"target":34962
		},
		{
			"buffer":0,
			"byteLength":288,
			"byteOffset":5448,
			"target":34962
		},
		{
			"buffer":0,
			"byteLength":288,
			"byteOffset":5736,
			"target":34962
		},
		{
			"buffer":0,
			"byteLength":192,
			"byteOffset":6024,
			"target":34962
		}
	],
	"samplers":[
		{
			"magFilter":9729,
			"minFilter":9987
		},
		{
			"magFilter":9728,
			"minFilter":9984,
			"wrapS":33071,
			"wrapT":33071
		}
	],
	"buffers":[
		{
			"byteLength":6216,
			"uri":"scene.bin"
		}
	]
}
